<svg width="44" height="44" viewBox="0 0 44 44" fill="none" xmlns="http://www.w3.org/2000/svg">
<path d="M22 2C10.9543 2 2 10.9543 2 22C2 33.0456 10.9543 42 22 42C33.0456 42 42 33.0456 42 22C42 10.9543 33.0456 2 22 2Z" stroke="black" stroke-width="3" stroke-linecap="round" stroke-linejoin="round"/>
<path d="M6.54199 34.6914C6.54199 34.6914 11 29 22 29C33 29 37.4582 34.6914 37.4582 34.6914" stroke="black" stroke-width="3" stroke-linecap="round" stroke-linejoin="round"/>
<path d="M21.9999 22C25.3137 22 27.9999 19.3138 27.9999 16C27.9999 12.6863 25.3137 10 21.9999 10C18.6861 10 15.9999 12.6863 15.9999 16C15.9999 19.3138 18.6861 22 21.9999 22Z" stroke="black" stroke-width="3" stroke-linecap="round" stroke-linejoin="round"/>
</svg>
