<svg width="145" height="120" viewBox="0 0 145 120" fill="none" xmlns="http://www.w3.org/2000/svg">
<rect width="144" height="119.385" rx="6" fill="#757575"/>
<path d="M50.184 57.956L44.08 57.284V54.484H58.92L66.816 79.684L68.664 86.796L70.344 79.684L78.184 54.484H92.912V57.284L86.752 57.956L91.232 92.732L96.104 93.348V96.092H79.976V93.348L85.072 92.788L82.552 67.644L81.376 56.836L79.024 64.9L69.672 94.188H66.032L56.96 67.364L53.656 56.78L52.648 67.644L50.408 92.788L55.952 93.348V96.092H41.336V93.348L46.096 92.788L50.184 57.956ZM102.445 57.956L98.0771 57.284V54.484H105.413C106.57 54.484 108.232 54.4094 110.397 54.26C112.562 54.1107 114.186 54.036 115.269 54.036C122.213 54.036 127.365 55.7907 130.725 59.3C134.122 62.772 135.821 67.6627 135.821 73.972C135.821 78.3774 134.944 82.2974 133.189 85.732C131.472 89.1294 129.045 91.78 125.909 93.684C122.773 95.588 119.17 96.54 115.101 96.54C114.205 96.54 112.674 96.4654 110.509 96.316C108.269 96.1667 106.589 96.092 105.469 96.092H97.7971V93.348L102.445 92.788V57.956ZM108.381 92.956C109.688 93.2547 111.368 93.404 113.421 93.404H115.101C117.901 93.3667 120.365 92.6574 122.493 91.276C124.658 89.8947 126.338 87.8414 127.533 85.116C128.728 82.3534 129.325 79.012 129.325 75.092C129.325 69.1934 128.037 64.7134 125.461 61.652C122.922 58.5907 119.077 57.06 113.925 57.06C112.842 57.06 111.554 57.1347 110.061 57.284C109.426 57.396 108.866 57.452 108.381 57.452V92.956Z" fill="white"/>
</svg>
